 <svg  version="1.0" xmlns="http://www.w3.org/2000/svg"  width="450.000000pt" height="446.000000pt" viewBox="0 0 450.000000 446.000000"  preserveAspectRatio="xMidYMid meet">  <g transform="translate(0.000000,446.000000) scale(0.100000,-0.100000)" fill="#49c15d" stroke="none"> <path d="M61 4358 l2 -103 -34 -4 -34 -4 33 -6 33 -6 0 -260 0 -260 -33 -6 c-31 -6 -27 -9 15 -13 16 -1 18 -21 20 -264 l2 -262 -32 0 c-18 0 -33 -4 -33 -9 0 -6 14 -9 31 -8 l30 2 2 -262 2 -263 -32 0 c-18 0 -33 -5 -33 -11 0 -6 14 -9 31 -7 l30 3 0 -535 0 -535 -31 3 c-17 2 -30 -1 -30 -7 0 -6 15 -11 33 -11 l32 0 -2 -262 -3 -263 -25 -1 c-39 -2 -43 -14 -4 -14 l34 0 -2 -262 -2 -263 -33 -6 -33 -6 33 -4 34 -4 -1 -222 c-1 -142 3 -223 9 -223 6 0 10 82 10 225 l0 225 265 0 265 0 3 -227 2 -228 3 228 2 227 265 0 265 0 0 -227 c0 -155 3 -223 10 -213 6 9 10 100 9 225 l-1 210 261 3 261 2 0 -225 c0 -148 4 -225 10 -225 7 0 10 75 10 223 l-1 222 260 3 261 2 0 -225 c0 -143 4 -225 10 -225 6 0 10 82 10 225 l0 225 261 -2 260 -3 -1 -222 c0 -148 3 -223 10 -223 6 0 10 77 10 225 l0 225 265 0 265 0 3 -227 2 -228 3 228 2 227 265 0 265 0 2 -227 2 -228 6 225 5 225 263 3 262 2 0 -225 c0 -148 4 -225 10 -225 7 0 10 75 10 223 l-2 222 44 6 43 5 -43 5 -43 4 0 260 0 260 41 3 c22 2 40 8 40 13 0 6 -18 9 -40 7 l-40 -3 -1 260 0 260 41 3 c22 2 40 8 40 13 0 6 -17 9 -40 7 l-41 -3 0 805 0 805 41 -3 c23 -2 40 1 40 7 0 5 -18 11 -40 13 l-41 3 0 260 1 260 40 -3 c22 -2 40 1 40 7 0 5 -18 11 -40 13 l-41 3 0 260 0 260 43 6 43 5 -44 5 -44 4 2 103 c1 66 -2 102 -8 102 -7 0 -11 -38 -11 -105 l0 -105 -262 3 -263 2 -6 105 -5 105 -2 -107 -2 -106 -263 1 -262 2 -5 105 -6 105 -4 -105 -5 -105 -262 -2 -263 -2 0 104 c0 67 -4 105 -11 105 -6 0 -9 -36 -8 -102 l2 -103 -262 -1 -261 0 0 103 c0 62 -4 103 -10 103 -6 0 -10 -41 -10 -104 l0 -104 -261 1 -262 2 2 103 c1 66 -2 102 -8 102 -7 0 -11 -38 -11 -105 l0 -105 -262 2 -262 3 3 103 c2 68 -1 102 -8 102 -7 0 -11 -37 -11 -105 l0 -105 -265 0 -265 0 -2 108 -2 107 -5 -105 -6 -105 -262 -2 -263 -1 0 104 c0 66 -4 104 -11 104 -6 0 -9 -36 -8 -102z m549 -383 l0 -265 -265 0 -265 0 0 265 0 265 265 0 265 0 0 -265z m540 0 l0 -265 -265 0 -265 0 0 265 0 265 265 0 265 0 0 -265z m540 10 c0 -140 4 -255 8 -255 5 0 9 114 10 253 l2 252 260 3 260 2 0 -155 c0 -101 4 -155 10 -155 7 0 10 52 9 153 l-1 152 262 0 262 0 -1 -195 c-1 -114 3 -201 9 -210 6 -10 10 54 10 198 l0 212 265 0 265 0 0 -265 0 -265 -147 -1 c-110 -1 -138 -4 -108 -10 22 -5 87 -8 145 -7 l105 2 5 -235 5 -234 5 233 5 233 260 0 260 -1 3 -260 2 -260 -125 0 c-86 0 -124 -3 -120 -11 4 -6 51 -9 123 -8 l117 1 3 -261 2 -261 -222 0 c-152 0 -218 -3 -208 -10 9 -6 98 -10 220 -9 l205 2 6 -44 c6 -44 9 -40 12 14 l2 28 260 0 260 0 3 -261 2 -260 -266 0 -266 0 5 28 c3 15 2 34 -4 42 -6 11 -9 2 -9 -27 0 -40 -2 -43 -27 -44 -16 0 -104 0 -196 1 -122 1 -167 -2 -162 -10 4 -7 45 -11 113 -10 59 1 144 1 190 1 l82 -1 -2 -261 -3 -261 -142 -2 c-77 0 -139 -4 -136 -8 2 -5 67 -8 144 -8 l139 0 0 -262 0 -263 -265 0 -265 0 -1 25 c-2 23 -2 23 -6 -3 -4 -26 -8 -28 -43 -26 -22 2 -42 0 -46 -4 -4 -4 14 -7 39 -7 l47 0 0 -265 0 -265 -265 0 -265 0 0 86 c0 57 -3 83 -11 79 -6 -4 -9 -38 -8 -83 l2 -77 -261 -3 -262 -2 0 30 c0 16 -4 30 -10 30 -5 0 -10 -14 -10 -30 l0 -30 -262 2 -261 3 0 142 c0 78 -4 140 -9 137 -4 -3 -8 -68 -8 -145 l0 -139 -262 0 -263 0 2 192 c1 110 -2 199 -7 208 -6 10 -10 -57 -10 -192 l0 -208 -265 0 -265 0 0 265 0 265 193 1 c134 1 180 4 152 10 -22 5 -107 8 -190 7 l-150 -1 -3 262 -2 261 37 0 c21 0 45 4 53 10 10 6 -1 8 -34 5 -43 -3 -49 -1 -54 17 -5 19 -6 20 -11 5 -6 -16 -29 -18 -266 -18 l-260 0 -3 261 -2 260 249 0 c156 0 252 4 256 10 4 7 -82 10 -250 10 l-255 0 2 261 3 260 253 -1 c167 0 252 3 252 10 0 7 -87 10 -255 10 l-255 0 0 263 0 262 262 -2 263 -3 5 -122 4 -123 6 124 5 123 123 -1 c80 -1 122 2 122 8 0 7 -44 11 -125 11 l-125 0 2 260 3 261 263 2 262 2 0 -59 c0 -73 8 -70 13 5 l4 54 139 1 c76 0 144 2 149 4 6 2 -57 7 -138 10 l-148 5 -2 263 -2 262 263 0 262 0 0 -255z m2170 -10 l0 -265 -265 0 -265 0 0 265 0 265 265 0 265 0 0 -265z m540 0 l0 -265 -262 2 -263 3 -3 263 -2 262 265 0 265 0 0 -265z m-3792 -544 l2 -261 -265 0 -265 0 0 263 0 262 263 -2 262 -1 3 -261z m3792 2 l0 -263 -265 0 -264 0 0 256 c0 141 1 259 3 263 2 3 122 6 265 6 l261 0 0 -262z m0 -540 l0 -263 -264 0 -265 0 -1 258 c0 142 1 260 4 263 2 2 122 4 265 4 l261 0 0 -262z m0 -1085 l0 -263 -262 2 -263 2 -1 261 0 260 263 0 263 0 0 -262z m-3792 -539 l-3 -260 -263 -2 -262 -2 0 263 0 262 265 0 265 0 -2 -261z m3792 -1 l0 -263 -263 1 -262 2 -3 261 -2 261 265 0 265 0 0 -262z m-3790 -543 l0 -265 -265 0 -265 0 0 265 0 265 265 0 265 0 0 -265z m3250 0 l0 -265 -265 0 -265 0 0 265 0 265 265 0 265 0 0 -265z m540 0 l0 -265 -265 0 -265 0 0 265 0 265 265 0 265 0 0 -265z"/> <path d="M2073 3912 c-62 -3 -83 -18 -66 -45 9 -15 10 -17 11 -102 l2 -71 68 4 c37 2 68 5 70 7 1 1 -1 10 -4 19 -5 14 -16 17 -45 14 -37 -3 -39 -2 -39 25 0 26 3 29 25 25 21 -4 25 -1 25 19 0 22 -3 24 -30 18 -27 -6 -30 -4 -30 19 0 23 4 26 35 26 33 0 53 17 43 37 -1 4 -31 7 -65 5z"/> <path d="M2239 3911 c0 -3 -2 -42 -5 -86 -2 -44 -6 -90 -9 -102 -5 -20 -1 -23 25 -23 27 0 30 3 30 30 0 40 13 38 33 -5 13 -26 23 -35 42 -35 30 0 31 7 6 40 -19 24 -19 24 5 47 30 28 33 82 5 107 -18 17 -130 39 -132 27z m96 -77 c0 -25 -4 -30 -29 -32 -23 -3 -28 0 -22 13 3 9 6 27 6 40 0 21 3 23 23 16 16 -6 22 -16 22 -37z"/> <path d="M1883 3892 c-24 -4 -31 -26 -35 -117 l-3 -50 -36 65 c-28 52 -41 66 -62 68 -19 2 -27 -1 -27 -12 0 -23 4 -31 12 -29 4 2 28 -33 54 -77 25 -44 49 -80 52 -79 42 4 47 15 58 125 6 60 10 109 10 109 -1 1 -11 -1 -23 -3z"/> <path d="M2490 3870 c-5 -10 -7 -20 -4 -23 3 -2 -4 -40 -15 -83 -11 -43 -17 -81 -13 -85 4 -3 31 -11 61 -18 44 -9 56 -9 63 1 13 22 9 26 -32 33 -22 4 -40 10 -40 13 0 8 29 131 36 153 7 24 -44 32 -56 9z"/> <path d="M2757 3804 c-4 -4 -7 -14 -7 -22 0 -7 -26 -43 -57 -79 -45 -51 -54 -66 -42 -74 21 -13 39 -11 45 5 8 22 67 -6 74 -35 3 -12 15 -26 28 -30 21 -8 22 -7 22 60 0 37 3 88 6 113 5 38 4 46 -12 50 -11 3 -26 9 -35 12 -8 4 -18 3 -22 0z m23 -109 c0 -35 -12 -43 -39 -26 -10 7 -8 14 10 35 12 14 24 26 26 26 2 0 3 -16 3 -35z"/> <path d="M1527 3789 c-27 -16 -49 -74 -41 -107 15 -60 65 -102 114 -94 83 14 105 118 40 184 -30 30 -78 37 -113 17z m62 -39 c25 -13 45 -64 37 -95 -7 -28 -45 -35 -65 -11 -20 24 -31 77 -20 97 11 21 22 23 48 9z"/> <path d="M1568 3703 c6 -2 18 -2 25 0 6 3 1 5 -13 5 -14 0 -19 -2 -12 -5z"/> <path d="M1694 3702 c5 -9 74 -7 83 2 4 3 -15 6 -41 6 -26 0 -45 -3 -42 -8z"/> <path d="M1913 3704 c12 -12 87 -16 87 -4 0 5 -21 10 -47 10 -25 0 -43 -3 -40 -6z"/> <path d="M2170 3706 c0 -9 30 -14 35 -6 4 6 -3 10 -14 10 -12 0 -21 -2 -21 -4z"/> <path d="M2408 3703 c6 -2 18 -2 25 0 6 3 1 5 -13 5 -14 0 -19 -2 -12 -5z"/> <path d="M2608 3703 c12 -2 32 -2 45 0 12 2 2 4 -23 4 -25 0 -35 -2 -22 -4z"/> <path d="M2853 3699 c9 -6 31 -8 48 -5 52 8 45 16 -12 16 -42 -1 -50 -3 -36 -11z"/> <path d="M2958 3703 c0 -5 -2 -12 -2 -18 -2 -14 -56 -106 -75 -128 -14 -17 -14 -20 4 -33 10 -8 21 -14 24 -14 3 0 19 23 34 51 16 28 30 49 32 47 2 -2 0 -31 -4 -66 -7 -61 -5 -68 26 -85 7 -4 33 28 67 84 31 51 55 93 54 94 -2 1 -12 7 -24 13 -19 10 -23 7 -45 -38 -13 -27 -27 -49 -31 -50 -4 0 -5 27 -1 60 4 41 2 64 -7 75 -13 15 -49 21 -52 8z m29 -80 c-11 -10 -26 8 -20 23 5 15 7 14 15 -1 6 -9 7 -19 5 -22z m26 -93 c3 -11 1 -18 -4 -14 -5 3 -9 12 -9 20 0 20 7 17 13 -6z"/> <path d="M2230 3611 c0 -39 5 -73 10 -76 6 -4 10 22 10 69 0 44 -4 76 -10 76 -6 0 -10 -30 -10 -69z"/> <path d="M1283 3663 c-21 -8 -15 -27 30 -96 23 -36 47 -73 52 -82 9 -16 16 -14 67 17 46 28 54 37 47 51 -9 15 -12 15 -42 -3 -18 -11 -35 -20 -38 -20 -3 0 -23 31 -45 70 -38 68 -45 74 -71 63z"/> <path d="M1698 3644 c-5 -4 -8 -53 -7 -108 0 -76 3 -95 10 -77 11 28 8 197 -3 185z"/> <path d="M1121 3545 c-38 -32 -45 -56 -31 -99 28 -86 113 -114 171 -57 27 28 41 81 20 81 -22 0 -41 -14 -41 -30 0 -29 -27 -45 -55 -32 -52 24 -73 102 -30 111 19 3 44 28 45 44 0 17 -51 5 -79 -18z"/> <path d="M3169 3536 c-13 -19 -41 -55 -63 -80 l-38 -46 23 -20 c71 -61 120 -61 169 -2 43 53 41 91 -10 142 -22 22 -44 40 -49 40 -4 0 -19 -15 -32 -34z m69 -62 c2 -21 -5 -38 -22 -57 -25 -27 -69 -36 -81 -17 -8 12 76 110 90 106 6 -1 11 -16 13 -32z"/> <path d="M2777 3543 c-11 -10 -8 -136 3 -153 7 -10 10 12 10 73 0 87 -1 93 -13 80z"/> <path d="M2070 3514 c-313 -29 -627 -179 -824 -393 -23 -24 -46 -49 -52 -55 -35 -36 -126 -173 -162 -242 -105 -206 -144 -369 -143 -592 1 -157 11 -232 52 -372 111 -380 395 -687 776 -836 151 -60 264 -79 458 -79 164 0 188 3 341 41 198 48 420 181 581 345 67 69 173 200 173 215 0 3 13 25 28 48 69 102 140 327 161 513 17 143 -12 394 -60 528 -25 67 -73 181 -84 195 -6 8 -17 28 -25 44 -25 50 -92 141 -160 218 -252 286 -682 457 -1060 422z m220 -29 c124 -8 120 -7 120 -17 0 -4 10 -7 23 -7 25 1 50 -4 92 -21 17 -6 32 -11 35 -11 16 1 80 -24 80 -31 0 -5 4 -6 10 -3 11 7 45 -9 73 -33 9 -8 29 -17 44 -18 15 -2 33 -11 40 -20 7 -10 13 -14 13 -10 0 4 7 0 16 -8 8 -9 21 -16 28 -16 7 0 27 -16 46 -35 19 -19 39 -35 44 -35 15 0 86 -66 86 -80 0 -6 5 -8 10 -5 6 3 10 1 10 -5 0 -6 4 -8 10 -5 5 3 7 0 5 -8 -3 -7 5 -19 20 -27 14 -7 25 -16 25 -20 0 -4 20 -28 45 -55 24 -27 42 -52 40 -56 -3 -4 2 -9 10 -13 8 -3 15 -12 15 -21 0 -8 8 -23 18 -33 21 -23 52 -76 52 -92 0 -6 7 -18 16 -27 8 -9 13 -21 10 -29 -3 -7 2 -18 10 -24 8 -7 14 -26 14 -42 0 -17 4 -27 10 -23 6 3 10 4 10 0 0 -3 9 -38 19 -78 11 -39 22 -99 26 -132 3 -32 9 -63 12 -68 3 -5 5 -40 5 -78 0 -38 3 -69 8 -69 4 0 5 -15 1 -32 -3 -18 -6 -45 -5 -60 1 -16 -4 -28 -10 -28 -7 0 -6 -3 1 -8 10 -6 10 -17 2 -43 -5 -18 -12 -54 -14 -78 -4 -42 -26 -121 -45 -166 -5 -11 -12 -31 -16 -45 -4 -14 -11 -28 -16 -31 -5 -3 -11 -12 -12 -20 -10 -48 -72 -167 -102 -197 -13 -13 -24 -26 -24 -31 0 -4 -8 -16 -18 -27 -9 -10 -39 -47 -67 -81 -27 -34 -52 -57 -56 -52 -3 6 -11 -3 -17 -21 -7 -18 -17 -30 -24 -27 -7 2 -21 -8 -30 -22 -10 -14 -21 -26 -26 -26 -5 0 -23 -11 -41 -25 -18 -14 -45 -34 -59 -45 -15 -11 -45 -29 -67 -39 -22 -11 -47 -23 -55 -28 -27 -15 -75 -32 -84 -30 -5 2 -13 -2 -17 -9 -7 -12 -26 -19 -56 -21 -7 -1 -13 -5 -13 -10 0 -4 -11 -8 -24 -8 -14 0 -27 -4 -31 -9 -3 -6 -13 -10 -23 -10 -23 -1 -59 -7 -103 -15 -114 -23 -380 -23 -439 1 -14 5 -75 18 -133 28 -15 3 -51 15 -80 29 -29 13 -67 27 -84 30 -18 4 -33 11 -33 15 0 3 -12 12 -27 19 -49 21 -107 56 -132 79 -14 12 -28 20 -33 17 -4 -3 -8 2 -8 10 0 9 -7 16 -15 16 -8 0 -15 5 -15 12 0 6 -3 9 -6 5 -8 -8 -44 25 -38 35 3 4 -2 5 -10 2 -12 -4 -16 0 -16 17 0 12 -3 19 -6 16 -10 -9 -46 12 -39 24 4 5 1 9 -4 9 -16 0 -53 39 -56 59 -1 9 -8 15 -14 13 -7 -1 -17 11 -22 28 -6 16 -16 30 -23 30 -6 0 -17 15 -25 33 -8 17 -22 40 -32 50 -11 10 -22 30 -25 45 -4 15 -15 35 -26 46 -11 10 -17 24 -14 32 3 8 1 14 -5 14 -6 0 -8 4 -4 9 3 5 0 15 -7 23 -15 16 -38 72 -45 111 -3 15 -10 27 -15 27 -6 0 -4 8 3 17 8 9 9 14 3 10 -8 -4 -14 5 -17 26 -3 17 -10 55 -16 82 -14 68 -25 300 -16 322 4 10 9 43 10 73 4 78 25 170 38 170 7 0 5 5 -3 10 -10 6 -11 10 -2 10 6 0 12 10 12 23 0 12 7 35 15 51 8 15 15 35 15 42 0 8 5 14 11 14 5 0 8 4 5 9 -4 5 -2 11 4 13 6 2 12 13 15 26 2 12 11 29 19 38 18 17 21 28 6 19 -6 -3 -7 1 -4 9 3 9 10 16 15 16 5 0 9 6 9 13 0 8 11 24 25 37 13 12 22 27 19 31 -3 5 0 9 5 9 6 0 11 7 11 15 0 8 13 24 30 37 16 12 32 30 36 40 3 10 10 16 15 13 5 -3 6 0 3 8 -3 9 7 24 23 37 15 12 28 27 28 33 0 7 6 13 13 13 6 1 16 2 21 3 5 0 13 10 16 21 3 11 12 20 20 20 7 0 15 7 18 15 7 15 64 57 130 93 23 12 37 22 32 22 -6 1 9 10 32 20 23 11 45 25 48 30 4 6 11 8 16 4 6 -3 18 1 27 9 19 16 53 31 65 29 4 -1 7 2 7 8 0 5 6 7 14 4 8 -3 32 4 54 15 23 12 48 18 62 14 16 -4 21 -3 16 5 -4 8 -2 10 7 6 8 -3 18 -1 21 5 4 6 13 8 21 5 7 -3 23 -1 34 6 12 6 63 13 114 17 50 3 93 7 95 8 2 2 11 1 20 -1 9 -2 60 -6 112 -9z"/> <path d="M2046 3389 c3 -5 -20 -9 -51 -9 -31 0 -68 -6 -83 -14 -15 -7 -53 -19 -84 -26 -32 -7 -58 -17 -58 -22 0 -5 -6 -8 -12 -6 -7 1 -24 -4 -36 -11 -13 -7 -26 -10 -29 -7 -3 3 -25 -8 -48 -24 -23 -16 -45 -26 -49 -23 -3 4 -6 2 -6 -3 0 -5 -16 -18 -35 -28 -19 -11 -35 -23 -35 -28 0 -4 -7 -8 -15 -8 -9 0 -30 -15 -48 -32 -84 -83 -157 -148 -166 -148 -6 0 -8 -7 -5 -15 4 -10 0 -15 -12 -15 -9 0 -14 -3 -11 -7 4 -3 -6 -18 -21 -33 -15 -15 -28 -33 -30 -41 -2 -8 -8 -15 -13 -17 -5 -2 -9 -8 -9 -14 0 -5 -13 -28 -29 -51 -15 -23 -26 -48 -24 -54 3 -7 0 -13 -5 -13 -6 0 -15 -13 -21 -30 -5 -16 -15 -30 -20 -30 -6 0 -11 -10 -10 -22 0 -36 -33 -148 -42 -142 -5 3 -6 -1 -3 -9 3 -8 -1 -30 -9 -48 -15 -37 -21 -399 -7 -399 5 0 6 -10 2 -22 -3 -14 -1 -19 6 -14 7 4 10 -4 10 -22 -1 -35 19 -97 36 -111 17 -14 68 35 97 95 12 24 26 41 31 38 4 -3 8 2 8 11 0 15 12 33 60 92 6 7 10 17 10 22 0 6 6 14 14 18 8 4 24 27 36 51 12 23 26 42 31 42 15 0 10 57 -6 70 -17 14 -21 45 -5 35 7 -4 7 3 0 19 -11 30 5 76 27 76 8 0 12 4 9 9 -6 10 49 61 65 61 6 0 8 4 4 10 -5 8 16 33 153 178 24 25 48 54 53 64 6 10 14 16 19 13 5 -3 11 3 15 14 3 10 33 46 66 80 48 48 64 59 75 50 11 -9 9 -16 -8 -40 -12 -16 -28 -29 -35 -29 -7 0 -13 -7 -13 -16 0 -8 -4 -12 -10 -9 -6 4 -7 -1 -3 -11 4 -11 2 -15 -4 -11 -5 3 -16 -4 -23 -17 -7 -14 -21 -27 -32 -29 -10 -3 -17 -9 -16 -14 4 -13 -164 -183 -174 -177 -4 3 -8 0 -8 -5 0 -23 -19 -52 -30 -46 -3 2 -6 -5 -6 -16 0 -22 29 4 170 151 44 47 117 122 160 167 63 66 77 85 67 96 -9 12 7 31 85 103 53 49 102 92 109 97 27 15 26 -16 -1 -90 -29 -75 -32 -79 -121 -139 -12 -8 -13 -15 -5 -31 11 -19 0 -30 -116 -119 -126 -98 -154 -120 -176 -139 -6 -6 -31 -26 -56 -45 -25 -19 -61 -50 -80 -69 -31 -30 -32 -32 -7 -17 15 9 33 14 39 10 7 -4 8 -3 4 4 -4 7 -3 12 2 12 5 0 22 13 38 30 16 16 37 30 46 30 10 0 15 6 13 13 -3 7 9 18 27 26 18 8 47 30 65 50 18 19 35 32 39 28 4 -4 13 2 21 13 8 11 18 20 23 20 5 0 19 10 32 23 13 12 42 38 65 57 25 21 43 45 45 60 4 32 17 52 29 45 5 -4 12 1 15 9 3 9 12 16 20 16 8 0 33 40 56 89 32 68 44 86 54 77 6 -6 10 -14 7 -19 -2 -4 12 -14 33 -23 30 -12 34 -18 23 -26 -11 -8 -11 -9 2 -5 38 12 71 -45 85 -148 0 -5 4 -18 9 -28 4 -10 2 -24 -6 -34 -10 -12 -10 -15 -1 -9 6 4 12 2 12 -3 0 -6 -4 -11 -9 -11 -5 0 -7 -9 -4 -20 3 -11 10 -20 15 -20 5 0 5 -6 0 -17 -7 -12 -4 -21 11 -33 11 -9 21 -23 23 -31 4 -25 25 -143 34 -189 5 -25 12 -60 15 -77 8 -39 33 -44 72 -13 56 43 137 11 179 -70 13 -25 49 -128 80 -230 38 -124 68 -202 91 -237 32 -50 63 -69 63 -40 0 22 -32 109 -38 103 -3 -3 -12 0 -21 6 -13 10 -14 10 -3 -2 13 -15 17 -59 5 -46 -5 4 -8 11 -9 14 0 4 -6 20 -13 36 -13 33 -8 56 12 56 8 0 22 10 31 23 9 12 14 17 11 10 -4 -9 1 -10 25 -2 16 6 33 15 36 20 3 5 16 9 30 9 13 0 24 4 24 10 0 5 12 13 28 16 15 4 33 11 40 17 8 7 12 5 12 -7 0 -9 3 -16 8 -16 4 0 6 -20 4 -44 -4 -50 23 -115 40 -98 8 8 6 23 -5 50 -9 22 -14 48 -11 59 3 10 -13 61 -36 114 -23 52 -55 132 -71 179 -37 112 -63 136 -156 146 -41 4 -106 2 -163 -5 -135 -18 -134 -18 -138 0 -2 12 7 18 33 23 29 6 35 11 30 24 -8 18 -120 362 -156 477 -22 70 -22 70 -100 120 -43 27 -75 53 -73 57 3 4 -3 8 -13 8 -11 0 -24 5 -31 12 -8 8 -20 5 -46 -15 -40 -31 -63 -34 -68 -10 -3 15 -21 17 -195 14 l-193 -3 6 30 c4 17 1 32 -5 36 -7 5 -11 -5 -11 -28 l0 -36 -71 0 c-45 0 -68 -4 -64 -10 4 -6 33 -8 71 -6 l64 5 0 -142 c0 -98 3 -137 10 -127 6 8 10 70 9 138 l-1 122 158 1 c88 0 162 0 165 0 3 -1 -37 -44 -90 -96 -87 -85 -97 -93 -109 -77 -9 12 -15 13 -20 5 -4 -6 -43 -51 -88 -100 -44 -48 -134 -146 -199 -218 -65 -71 -140 -154 -167 -183 -49 -54 -54 -66 -39 -91 6 -9 -22 -55 -97 -155 -58 -77 -109 -143 -112 -146 -4 -3 -19 -23 -33 -45 -21 -31 -27 -35 -28 -20 -1 11 -4 38 -7 60 -11 81 -4 290 12 365 60 279 206 510 436 691 176 139 459 233 685 228 102 -2 248 -22 316 -43 59 -18 197 -75 229 -95 323 -196 511 -455 576 -794 16 -84 23 -290 11 -362 -19 -122 -49 -221 -101 -337 l-25 -57 -56 6 c-52 5 -59 3 -108 -30 -36 -24 -73 -39 -117 -47 -76 -14 -119 -40 -185 -109 -28 -29 -57 -51 -69 -51 -25 0 -117 46 -145 71 -11 11 -25 19 -32 19 -6 0 -28 9 -48 20 -34 20 -49 39 -92 121 -34 64 -61 81 -161 100 -51 10 -136 21 -189 25 -88 6 -97 5 -110 -13 -23 -32 -41 -38 -135 -43 l-91 -6 -70 -72 c-43 -44 -88 -80 -117 -93 -47 -20 -49 -20 -111 -4 -35 10 -74 16 -88 13 -18 -4 -28 3 -45 27 -17 28 -19 35 -8 51 8 11 73 138 146 284 l133 265 319 314 c311 307 428 432 310 331 -29 -25 -77 -68 -107 -97 -29 -28 -56 -49 -59 -45 -3 3 -6 0 -6 -6 0 -17 -83 -98 -95 -94 -5 2 -7 1 -3 -3 7 -7 -179 -195 -193 -195 -5 0 -9 -7 -9 -15 0 -8 -4 -15 -9 -15 -4 0 -47 -38 -94 -85 -47 -47 -83 -85 -80 -85 3 0 -2 -11 -11 -25 -9 -14 -13 -25 -9 -25 3 0 -3 -10 -15 -22 -11 -13 -21 -27 -20 -31 1 -13 -36 -77 -44 -77 -4 0 -5 -6 -2 -13 3 -8 -2 -20 -11 -27 -8 -7 -15 -18 -15 -25 0 -12 -135 -281 -150 -300 -11 -13 -9 -56 2 -49 4 3 8 -4 8 -16 0 -12 10 -25 25 -32 13 -6 22 -15 18 -20 -3 -6 4 -5 17 2 12 6 29 9 38 5 36 -14 69 -19 120 -18 68 1 82 4 76 15 -3 5 8 14 25 21 17 6 31 17 31 24 0 7 4 13 10 13 11 0 86 72 91 89 3 8 33 14 84 16 99 6 126 12 140 32 7 9 21 18 31 20 34 7 128 2 172 -9 23 -6 45 -8 48 -6 2 3 30 -1 61 -8 32 -7 59 -11 61 -9 8 7 72 -69 78 -92 3 -13 10 -23 16 -23 5 0 7 -4 4 -8 -3 -5 6 -21 20 -37 28 -33 29 -35 10 -35 -8 0 -28 12 -43 26 -15 14 -23 23 -17 20 18 -9 5 40 -17 63 -10 11 -19 26 -19 32 0 7 -3 9 -7 6 -3 -4 -12 1 -19 10 -9 13 -34 20 -91 25 -43 4 -108 10 -145 14 l-68 7 0 -42 c0 -22 5 -41 10 -41 6 0 10 -5 10 -10 0 -6 12 -22 26 -35 15 -14 23 -25 18 -25 -5 0 -2 -6 6 -13 23 -18 24 -105 2 -130 -9 -11 -11 -17 -4 -13 6 4 3 -8 -7 -26 -27 -46 -33 -85 -15 -103 9 -8 13 -18 11 -22 -6 -9 9 -11 103 -13 36 -1 82 -6 103 -10 26 -5 37 -4 37 4 0 7 3 8 8 0 10 -15 100 -18 118 -4 16 14 19 60 3 60 -5 0 -8 4 -4 9 3 6 -24 24 -60 41 -36 17 -63 35 -60 41 4 5 1 9 -5 9 -6 0 -8 5 -4 12 5 8 11 6 20 -6 7 -10 17 -15 23 -12 5 4 12 2 16 -4 3 -5 15 -10 26 -10 10 0 19 -5 19 -10 0 -6 3 -9 8 -9 21 4 42 -2 38 -10 -4 -5 2 -7 12 -4 12 3 22 -4 30 -21 6 -14 16 -26 22 -26 5 0 9 -5 8 -12 -3 -12 61 -36 100 -37 23 -1 54 27 58 54 1 8 -2 15 -8 15 -6 0 -18 8 -27 18 -9 9 -23 17 -31 17 -8 0 -15 7 -15 15 -1 8 -6 14 -13 12 -7 -1 -12 5 -12 13 0 9 -7 18 -15 21 -9 4 -13 13 -10 23 4 12 -4 22 -27 34 l-33 16 29 -2 c15 -1 31 -7 33 -14 3 -7 11 -13 18 -13 7 0 19 -7 26 -16 11 -13 38 -28 69 -39 3 -1 12 -5 22 -9 23 -10 64 14 124 73 29 27 54 47 58 44 3 -4 6 2 6 12 0 10 3 15 7 12 3 -4 12 -2 20 4 8 7 13 8 13 1 0 -5 -12 -17 -26 -27 -43 -28 -66 -56 -60 -72 5 -12 16 -5 49 31 40 42 47 46 91 46 36 0 63 8 101 30 34 20 68 30 98 31 26 1 47 6 47 11 0 5 -4 6 -10 3 -5 -3 -10 -1 -10 5 0 8 -9 10 -26 6 -74 -19 -85 -19 -78 -2 3 9 14 16 24 16 11 0 22 5 25 10 8 13 42 13 47 0 5 -16 78 9 84 28 12 36 27 61 35 56 4 -2 8 4 7 13 0 23 37 115 44 108 3 -3 5 7 5 22 -1 31 5 55 27 127 8 27 13 63 11 82 -3 18 -1 35 3 38 9 5 7 119 -2 141 -2 6 0 18 4 25 5 8 6 18 3 24 -3 5 -7 25 -9 45 -4 45 -33 181 -43 201 -4 8 -14 36 -22 63 -7 26 -17 47 -22 47 -5 0 -7 6 -4 14 3 8 0 16 -7 19 -7 3 -18 24 -26 47 -8 24 -19 48 -25 54 -6 6 -23 31 -37 56 -34 56 -63 94 -105 135 -18 17 -33 37 -33 43 0 7 -5 12 -11 12 -5 0 -30 19 -55 42 -25 23 -56 50 -70 58 -13 9 -22 20 -19 23 3 4 2 5 -1 2 -11 -7 -65 25 -59 35 4 6 -1 7 -11 3 -11 -4 -15 -3 -11 4 4 6 -6 16 -23 22 -17 5 -44 19 -59 30 -16 11 -31 18 -34 15 -3 -3 -25 3 -49 14 -23 11 -61 25 -83 32 -22 7 -53 18 -70 25 -31 14 -131 28 -175 25 -14 -1 -29 -1 -35 0 -47 7 -204 6 -199 -1z m175 -246 c16 -10 29 -21 29 -25 0 -4 15 -14 33 -21 31 -14 118 -87 102 -87 -4 0 -2 -7 5 -15 6 -8 9 -19 6 -24 -4 -5 -2 -12 3 -15 7 -5 21 -54 25 -88 1 -3 4 -10 9 -14 4 -4 7 -14 7 -23 0 -9 7 -29 15 -45 8 -15 15 -37 15 -47 0 -10 4 -20 9 -23 8 -5 34 -85 36 -111 0 -5 4 -16 8 -22 5 -7 5 -17 2 -23 -3 -5 -2 -10 3 -10 5 0 12 -9 15 -20 3 -12 0 -20 -7 -20 -17 0 -42 -32 -50 -65 -8 -31 -23 -24 -30 15 -2 14 -6 27 -7 30 -1 3 -3 10 -4 15 -12 75 -19 102 -29 114 -8 11 -8 13 2 7 15 -9 15 -7 -3 44 -8 23 -15 59 -15 78 0 31 -7 61 -28 122 -3 8 -4 19 -3 24 3 14 -31 118 -46 143 -8 12 -30 29 -49 38 -19 9 -34 19 -34 23 0 4 -14 15 -30 24 -17 9 -30 22 -30 28 0 14 7 13 41 -7z m21 -71 l73 -54 33 -146 c18 -81 46 -219 62 -307 25 -137 27 -162 15 -174 -12 -12 -14 -8 -20 25 -21 130 -28 172 -36 198 -5 16 -9 44 -9 62 0 27 -4 34 -20 34 -11 0 -20 7 -20 15 0 8 7 15 16 15 19 0 13 25 -7 26 -31 2 -33 5 -15 19 18 13 18 17 -5 112 -24 105 -35 121 -128 186 -41 28 -54 51 -26 45 8 -2 47 -27 87 -56z m471 -634 c56 -29 125 -170 94 -190 -22 -14 -37 -8 -37 15 0 35 -49 126 -81 149 -21 16 -26 24 -17 30 17 10 16 10 41 -4z m81 1 c31 -14 70 -69 90 -126 13 -37 13 -42 -1 -47 -26 -10 -29 -7 -47 50 -12 38 -30 68 -58 95 -41 40 -35 51 16 28z m82 -8 c34 -21 91 -122 79 -140 -14 -23 -31 -9 -43 35 -8 28 -26 60 -47 81 -49 49 -45 58 11 24z m-219 -15 c53 -44 102 -178 72 -196 -18 -12 -29 -3 -29 23 0 39 -47 124 -84 153 -20 16 -36 32 -36 37 0 16 50 5 77 -17z m-1422 -294 c-67 -97 -127 -187 -134 -200 -16 -29 -27 -21 -34 24 -5 32 -1 42 35 84 24 28 47 46 55 43 9 -3 11 0 7 10 -3 10 26 54 80 122 47 59 86 112 86 118 0 7 7 4 14 -6 13 -16 1 -37 -109 -195z m1698 141 c9 -14 -19 -32 -34 -22 -11 7 -10 9 4 9 10 0 15 5 12 10 -3 6 -2 10 4 10 5 0 12 -3 14 -7z m-78 -34 c-4 -5 -16 -9 -28 -9 -21 1 -21 1 -3 15 20 15 41 11 31 -6z m141 -54 c29 -71 30 -85 7 -85 -13 0 -26 20 -44 70 -15 38 -24 72 -21 75 16 15 35 -6 58 -60z m-196 35 c0 -5 -9 -11 -20 -15 -23 -7 -48 4 -31 14 16 10 51 11 51 1z m136 -67 c26 -72 26 -85 -2 -84 -5 0 -74 148 -74 158 0 2 11 3 24 3 21 0 28 -10 52 -77z m-92 31 c4 -14 18 -49 31 -76 26 -54 25 -68 -4 -68 -13 0 -24 15 -36 48 -10 26 -24 57 -32 70 -11 18 -12 26 -2 38 18 22 36 17 43 -12z m-65 -45 c10 -34 10 -43 -1 -51 -10 -6 -8 -8 6 -6 28 4 44 -48 22 -70 -8 -9 -17 -14 -19 -11 -3 2 -16 36 -30 74 -13 39 -28 78 -32 88 -6 13 -2 17 17 17 20 0 27 -8 37 -41z m-734 -409 c38 -11 95 -20 126 -20 67 0 88 -18 114 -98 16 -51 19 -53 90 -86 54 -25 78 -42 89 -64 21 -42 73 -91 115 -109 42 -18 27 -33 -34 -33 -44 1 -60 10 -92 56 -17 24 -42 38 -112 63 -49 18 -95 39 -101 46 -18 21 -30 9 -30 -29 0 -45 20 -68 76 -86 36 -11 53 -24 68 -49 l20 -34 -50 7 c-27 4 -107 11 -178 15 -165 9 -169 12 -120 115 33 69 34 74 23 131 -7 43 -19 69 -39 90 -47 49 -69 105 -42 105 4 0 39 -9 77 -20z m935 -125 c-7 -9 -15 -13 -17 -11 -7 7 7 26 19 26 6 0 6 -6 -2 -15z m-40 -15 c0 -5 -9 -10 -21 -10 -11 0 -17 5 -14 10 3 6 13 10 21 10 8 0 14 -4 14 -10z"/> <path d="M2230 1605 l0 -60 -64 3 c-36 2 -73 -1 -83 -7 -14 -8 2 -10 63 -11 76 0 82 -2 89 -22 l8 -23 4 22 c3 14 13 23 31 26 l27 4 -27 2 c-26 1 -28 4 -28 49 0 26 -5 54 -10 62 -7 11 -10 -3 -10 -45z"/> <path d="M2230 1335 c0 -14 5 -25 10 -25 6 0 10 11 10 25 0 14 -4 25 -10 25 -5 0 -10 -11 -10 -25z"/> <path d="M2230 3271 c0 -44 5 -83 10 -86 6 -4 10 25 10 79 0 51 -4 86 -10 86 -6 0 -10 -33 -10 -79z"/> <path d="M2285 3159 c17 -5 132 -9 258 -8 l227 0 3 -260 2 -261 -113 0 c-77 0 -111 -3 -107 -11 4 -6 48 -9 113 -8 l107 2 -3 -54 c-1 -30 2 -61 8 -69 7 -11 10 4 10 53 l0 67 215 0 c137 0 215 4 215 10 0 6 -78 10 -215 10 l-215 0 0 270 0 270 -267 -1 c-180 0 -258 -4 -238 -10z"/> <path d="M2124 2824 l-38 -46 75 -151 c40 -84 78 -159 84 -167 6 -8 24 -43 40 -78 29 -62 30 -63 62 -57 36 6 41 0 19 -24 -18 -21 -67 -157 -62 -173 3 -7 7 -25 10 -40 8 -35 61 -74 80 -58 23 18 114 1 187 -36 61 -30 65 -35 62 -61 -4 -25 0 -31 32 -46 38 -18 80 -14 72 6 -12 33 -88 271 -106 332 -24 82 -62 142 -98 156 -32 12 -90 2 -75 -13 15 -15 3 -38 -20 -38 -14 0 -18 -5 -14 -16 3 -9 6 -18 6 -21 0 -2 14 7 31 21 36 31 60 33 83 7 18 -20 50 -122 48 -156 -1 -15 1 -16 7 -6 5 7 14 10 20 7 6 -4 9 -11 6 -16 -3 -5 -1 -11 5 -15 5 -3 10 -19 10 -35 0 -16 5 -32 10 -35 6 -3 10 -14 10 -23 0 -9 6 -29 14 -44 8 -15 17 -41 21 -58 6 -27 4 -31 -11 -28 -9 1 -22 17 -27 33 -14 41 -53 74 -102 85 -5 1 -17 6 -25 10 -9 5 -36 11 -60 15 -25 3 -58 8 -74 11 -19 4 -26 3 -22 -5 8 -12 -4 -14 -20 -3 -31 22 -42 142 -12 142 5 0 6 5 3 11 -4 5 1 19 10 29 37 41 27 110 -17 110 -10 0 -22 8 -25 18 -4 9 -9 19 -12 22 -12 10 -34 65 -32 80 1 12 0 12 -7 2 -7 -10 -12 -5 -22 20 -28 74 -35 88 -43 88 -5 0 -5 9 -2 20 3 11 2 20 -3 20 -5 0 -17 15 -26 33 -9 17 -20 39 -25 47 -29 53 -30 58 -19 94 8 26 14 33 21 24 6 -10 7 -9 4 2 -2 8 0 23 5 33 15 30 1 19 -38 -29z"/> <path d="M1149 2662 c-8 -74 6 -499 14 -452 4 25 6 125 5 224 l-2 178 135 -1 c74 -1 141 3 149 9 10 7 -33 10 -138 10 l-153 0 5 30 c2 16 1 32 -4 35 -4 3 -10 -12 -11 -33z"/> <path d="M1930 2620 c0 -6 44 -10 111 -10 71 0 108 4 104 10 -3 6 -52 10 -111 10 -63 0 -104 -4 -104 -10z"/> <path d="M2230 2261 c1 -94 -1 -171 -4 -171 -3 0 -122 0 -263 0 l-258 0 2 155 c1 91 -2 155 -8 155 -5 0 -9 -66 -9 -155 l0 -155 -119 0 c-74 0 -122 -4 -126 -11 -5 -7 32 -9 119 -7 l126 3 0 -153 c0 -106 3 -151 11 -147 7 5 10 57 8 148 -1 78 1 143 5 145 3 1 122 2 264 2 l257 0 -3 -136 c-2 -87 1 -141 7 -147 8 -8 11 33 11 136 l0 147 25 0 c14 0 25 5 25 10 0 6 -11 10 -25 10 l-25 0 0 164 c0 104 -4 167 -10 171 -8 5 -10 -48 -10 -164z"/> <path d="M2478 2299 c-28 -16 -21 -29 12 -22 20 4 30 2 30 -7 0 -7 11 -25 25 -42 14 -16 25 -37 25 -45 0 -9 3 -14 6 -11 9 10 -15 84 -37 112 -22 28 -34 31 -61 15z"/> <path d="M2430 2260 c0 -5 5 -10 10 -10 6 0 10 5 10 10 0 6 -4 10 -10 10 -5 0 -10 -4 -10 -10z"/> <path d="M952 2180 c0 -19 2 -27 5 -17 2 9 2 25 0 35 -3 9 -5 1 -5 -18z"/> <path d="M3085 2080 c3 -6 50 -10 106 -10 59 0 99 4 99 10 0 6 -42 10 -106 10 -67 0 -103 -4 -99 -10z"/> <path d="M3020 1966 c0 -15 -3 -16 -15 -6 -19 16 -19 1 1 -38 21 -44 46 -43 37 1 -8 42 -22 70 -23 43z"/> <path d="M2923 1936 c8 -8 20 -28 27 -45 20 -48 42 -41 34 12 -8 51 -10 53 -28 38 -10 -8 -16 -9 -21 -1 -3 5 -11 10 -16 10 -6 0 -4 -6 4 -14z"/> <path d="M2876 1888 c32 -64 30 -62 48 -55 25 10 -1 74 -37 92 -17 8 -32 15 -34 15 -2 0 9 -24 23 -52z"/> <path d="M2776 1834 c-9 -23 -6 -206 4 -229 5 -13 9 29 9 113 1 72 -1 132 -3 132 -2 0 -7 -7 -10 -16z"/> <path d="M3068 1518 c-55 -71 -63 -79 -67 -57 -1 13 -8 27 -15 31 -23 15 -73 7 -106 -17 -19 -14 -48 -25 -64 -25 -47 0 -64 -16 -26 -24 34 -6 134 29 125 45 -11 17 47 1 69 -20 l25 -23 40 33 c23 18 41 36 41 41 0 4 14 22 30 40 29 30 39 58 21 58 -6 0 -38 -37 -73 -82z"/> <path d="M1594 1555 c-4 -8 -15 -15 -25 -15 -10 0 -19 -4 -19 -10 0 -18 -74 -47 -110 -43 -19 3 -45 5 -57 6 -11 1 -19 6 -16 11 4 5 -6 6 -23 2 -38 -10 -56 -37 -34 -51 6 -4 7 -11 4 -17 -4 -6 -2 -8 4 -4 6 3 13 -3 17 -14 4 -11 19 -27 35 -35 15 -8 30 -18 32 -22 4 -11 65 -53 75 -53 4 0 1 5 -7 11 -11 8 -6 9 21 5 26 -5 40 -2 49 10 8 8 35 26 61 39 25 13 49 31 53 40 8 21 8 108 0 129 -12 31 -21 6 -16 -44 5 -56 -15 -100 -46 -100 -10 0 -29 -11 -42 -25 -18 -19 -34 -25 -64 -25 -37 0 -48 7 -109 64 -37 36 -64 67 -60 69 5 3 26 -1 48 -9 46 -16 113 -18 147 -5 37 14 127 100 105 101 -10 0 -20 -7 -23 -15z"/> <path d="M2506 1539 c8 -13 214 -11 214 1 0 7 -39 10 -110 9 -61 -1 -107 -5 -104 -10z"/> <path d="M2975 1540 c-25 -6 -20 -8 28 -9 37 -1 56 3 52 9 -7 11 -36 11 -80 0z"/> <path d="M1150 3256 l0 -86 -57 -1 c-32 -1 -61 -1 -65 0 -5 0 -8 -3 -8 -9 0 -5 29 -8 65 -7 l65 2 0 -59 c0 -72 11 -69 13 4 l2 52 48 3 c68 4 71 15 5 15 l-55 0 5 79 c3 52 1 81 -7 85 -8 5 -11 -18 -11 -78z"/> <path d="M3443 3307 c-4 -7 -38 -37 -75 -67 l-67 -53 41 -48 c23 -27 45 -49 49 -49 20 0 19 24 -4 53 l-24 31 66 50 c36 27 68 51 70 53 6 4 -30 43 -40 43 -4 0 -12 -6 -16 -13z"/> <path d="M848 3275 c-23 -30 -23 -42 0 -54 10 -5 38 -41 63 -80 24 -39 46 -70 49 -71 3 0 11 9 18 21 10 15 10 24 2 34 -17 20 28 79 47 63 11 -9 19 -7 35 10 17 17 19 22 7 26 -8 3 -56 21 -107 41 -52 19 -94 35 -95 35 -1 0 -10 -11 -19 -25z m52 -24 c0 -5 15 -14 33 -22 42 -16 40 -14 27 -39 -12 -22 -12 -21 -36 14 -14 20 -32 36 -40 36 -8 0 -12 5 -9 10 8 12 25 13 25 1z"/> <path d="M3105 3161 c30 -12 182 -13 190 -1 4 7 -31 10 -102 9 -66 0 -100 -3 -88 -8z"/> <path d="M3405 3160 c8 -13 125 -13 145 0 10 7 -11 10 -68 10 -53 0 -81 -4 -77 -10z"/> <path d="M3567 3151 c-17 -6 -17 -8 -3 -20 9 -7 16 -17 16 -21 0 -5 -34 -28 -75 -52 -41 -23 -75 -45 -75 -48 1 -3 7 -13 15 -23 13 -18 17 -16 86 28 55 36 74 43 80 33 5 -7 9 -16 9 -20 0 -8 50 -11 50 -4 0 5 -81 136 -84 135 0 0 -9 -4 -19 -8z"/> <path d="M3318 3123 c-2 -5 -1 -69 2 -143 l6 -135 2 143 c2 128 0 158 -10 135z"/> <path d="M737 3089 c-10 -6 -29 -28 -43 -50 -20 -32 -23 -43 -13 -55 6 -8 16 -14 22 -14 5 0 41 -18 79 -40 39 -22 71 -40 72 -40 1 0 13 22 26 50 19 40 21 56 14 82 -17 59 -105 97 -157 67z m97 -64 c27 -25 31 -41 17 -63 -7 -12 -42 4 -120 55 -2 1 -1 9 2 18 10 24 70 19 101 -10z"/> <path d="M3685 2927 c-11 -8 -53 -27 -92 -42 -40 -15 -73 -29 -73 -30 0 -11 35 -84 47 -97 26 -29 69 -32 117 -8 57 27 74 64 56 121 -21 62 -31 72 -55 56z m21 -95 c-6 -18 -65 -52 -90 -52 -13 0 -53 38 -45 43 2 2 31 14 64 28 48 21 62 23 68 12 5 -7 6 -22 3 -31z"/> <path d="M600 2839 c-23 -64 -19 -78 20 -79 8 0 46 -14 84 -30 38 -16 70 -29 71 -27 1 1 12 29 24 61 17 47 19 61 9 67 -21 14 -24 11 -37 -31 -10 -35 -14 -38 -34 -31 -12 5 -20 15 -18 23 8 30 5 42 -10 46 -10 2 -19 -5 -22 -18 -5 -21 -23 -25 -45 -11 -12 7 -11 13 2 38 11 23 12 33 3 42 -19 19 -23 13 -47 -50z"/> <path d="M610 2680 c-3 -36 -4 -74 -1 -84 4 -19 5 -19 11 -2 5 16 20 18 152 17 93 -1 149 2 153 9 4 7 -44 10 -149 10 l-155 0 -3 58 -3 57 -5 -65z"/> <path d="M3756 2582 c-3 -3 -6 -14 -6 -24 0 -22 -13 -23 -30 -3 -11 14 -15 13 -27 -5 -8 -12 -13 -22 -12 -24 2 -1 17 -7 33 -14 l28 -13 -26 -20 c-25 -20 -26 -22 -9 -35 24 -18 31 -17 38 6 9 27 19 25 31 -6 8 -23 11 -24 29 -11 19 15 19 16 1 36 -19 21 -19 21 7 21 30 0 40 11 31 35 -5 12 -14 15 -32 10 -22 -5 -24 -4 -18 18 4 19 1 26 -14 30 -10 3 -21 2 -24 -1z m24 -77 c0 -8 -4 -15 -10 -15 -5 0 -10 7 -10 15 0 8 5 15 10 15 6 0 10 -7 10 -15z"/> <path d="M550 2564 c0 -3 5 -14 11 -26 14 -26 8 -31 -24 -19 -22 9 -25 7 -30 -15 -4 -21 -1 -24 25 -24 28 0 28 -1 13 -24 -15 -23 -15 -25 5 -36 18 -10 22 -9 27 9 7 26 17 27 34 1 13 -18 16 -18 34 -4 20 16 20 16 -2 31 -29 20 -29 27 2 41 22 10 24 15 15 32 -10 19 -12 19 -35 4 -24 -16 -25 -16 -25 10 0 21 -5 26 -25 26 -14 0 -25 -3 -25 -6z m40 -79 c-7 -9 -15 -13 -18 -10 -3 2 1 11 8 20 7 9 15 13 18 10 3 -2 -1 -11 -8 -20z"/> <path d="M3860 2350 c0 -84 3 -151 6 -147 8 7 7 287 -1 295 -3 3 -5 -64 -5 -148z"/> <path d="M609 2357 c-2 -24 -1 -57 2 -73 4 -19 7 -3 8 44 1 79 -5 97 -10 29z"/> <path d="M578 2243 c-60 -3 -68 -6 -68 -23 0 -15 7 -20 25 -20 19 0 25 -5 25 -21 0 -39 19 -59 54 -59 43 0 57 18 59 77 2 54 8 51 -95 46z m66 -51 c-2 -29 -5 -32 -28 -32 -22 0 -41 23 -32 39 7 11 61 5 60 -7z"/> <path d="M3693 2228 c-22 -27 -25 -59 -8 -84 23 -36 55 -28 80 18 23 43 45 50 45 13 0 -14 -4 -25 -10 -25 -5 0 -10 -9 -10 -20 0 -24 13 -26 34 -4 20 19 21 88 2 104 -25 20 -60 8 -78 -28 -20 -42 -24 -46 -37 -37 -8 4 -8 12 -1 26 14 25 -1 57 -17 37z"/> <path d="M605 2080 c4 -6 11 -8 16 -5 14 9 11 15 -7 15 -8 0 -12 -5 -9 -10z"/> <path d="M680 2080 c20 -13 190 -13 190 0 0 6 -41 10 -102 10 -70 0 -98 -3 -88 -10z"/> <path d="M605 2058 c-27 -5 -59 -11 -70 -14 -19 -3 -20 -9 -15 -51 4 -36 10 -49 23 -51 16 -3 17 1 11 32 -5 32 -4 36 15 36 14 0 21 -6 21 -20 0 -11 7 -20 15 -20 9 0 15 9 15 25 0 18 5 25 20 25 16 0 20 -7 20 -30 0 -20 5 -30 15 -30 9 0 15 9 15 24 0 42 -12 86 -24 85 -6 -1 -33 -6 -61 -11z"/> <path d="M3676 2039 c-29 -43 -13 -99 29 -99 16 0 30 11 45 35 24 38 37 44 47 19 4 -10 -1 -22 -10 -29 -21 -15 -22 -45 -3 -45 21 0 46 39 46 71 0 31 -31 62 -57 57 -10 -2 -27 -18 -38 -35 -20 -33 -45 -44 -45 -20 0 7 5 18 11 24 7 7 8 17 1 28 -8 16 -11 15 -26 -6z"/> <path d="M612 1930 c0 -14 2 -19 5 -12 2 6 2 18 0 25 -3 6 -5 1 -5 -13z"/> <path d="M670 1903 c0 -5 -29 -15 -65 -22 -36 -7 -65 -16 -65 -20 1 -19 20 -33 39 -26 26 8 27 -2 1 -30 -12 -13 -17 -28 -14 -43 l6 -22 20 26 c15 18 24 22 31 15 18 -18 63 -13 82 9 15 17 17 28 9 68 -6 32 -14 48 -26 50 -10 2 -18 -1 -18 -5z m18 -65 c-2 -17 -10 -23 -28 -23 -30 0 -40 31 -13 38 37 10 44 7 41 -15z"/> <path d="M3631 1839 c-13 -51 -8 -74 15 -65 8 3 41 -3 73 -13 l59 -18 14 53 c15 51 14 54 -3 54 -11 0 -19 -7 -19 -17 0 -10 -4 -24 -9 -32 -11 -18 -36 -2 -36 23 0 11 -6 21 -12 24 -8 2 -13 -5 -13 -17 0 -15 -6 -21 -21 -21 -19 0 -20 4 -15 34 5 24 2 35 -7 39 -10 4 -18 -10 -26 -44z"/> <path d="M612 1730 c0 -19 2 -27 5 -17 2 9 2 25 0 35 -3 9 -5 1 -5 -18z"/> <path d="M701 1711 c-7 -5 -16 -29 -18 -55 -4 -30 -10 -46 -20 -46 -19 0 -28 27 -14 44 8 10 8 16 -3 26 -40 32 -52 -52 -13 -88 42 -40 73 -24 81 42 3 21 8 41 11 44 8 8 25 -20 18 -30 -7 -12 17 -39 28 -32 16 9 10 51 -12 78 -21 27 -35 31 -58 17z"/> <path d="M3591 1694 c-46 -58 -7 -124 73 -124 35 0 48 5 60 22 19 27 20 58 3 82 -12 16 -14 16 -26 2 -11 -13 -11 -19 0 -32 11 -14 10 -18 -6 -30 -22 -16 -52 -10 -79 17 -19 17 -19 19 -3 37 18 20 23 52 8 52 -5 0 -19 -12 -30 -26z"/> <path d="M3321 1583 c0 -19 -8 -36 -18 -42 -17 -10 -17 -10 -1 -11 16 0 18 -16 21 -147 l3 -148 2 148 2 147 79 0 c46 0 83 5 86 11 5 7 -19 10 -77 8 l-83 -2 -6 34 -6 34 -2 -32z"/> <path d="M795 1560 c-4 -6 -33 -24 -66 -40 l-59 -30 22 -45 c12 -25 28 -45 35 -45 17 0 16 21 -2 47 -14 20 -14 23 6 33 17 10 21 8 26 -10 8 -29 29 -19 25 12 -4 36 25 45 40 13 6 -14 19 -25 30 -25 16 0 15 5 -10 50 -28 51 -36 58 -47 40z"/> <path d="M860 1540 c0 -6 42 -10 108 -10 73 0 102 3 92 10 -20 13 -200 13 -200 0z"/> <path d="M3512 1517 c-29 -31 -28 -72 2 -102 47 -47 111 -42 135 12 11 25 5 73 -9 73 -14 0 -25 -23 -25 -50 0 -33 -32 -38 -68 -10 -30 24 -33 33 -14 52 7 7 16 21 20 31 9 25 -15 22 -41 -6z"/> <path d="M866 1407 c3 -8 -14 -38 -37 -67 -33 -42 -40 -57 -32 -69 13 -19 18 -19 108 5 84 22 83 21 63 40 -13 14 -21 13 -71 -4 -32 -10 -57 -17 -57 -15 0 3 16 23 35 46 39 46 42 70 7 75 -15 2 -20 -1 -16 -11z"/> <path d="M1150 1277 c0 -92 4 -137 11 -137 12 0 8 255 -4 267 -4 3 -7 -55 -7 -130z"/> <path d="M3423 1375 c-3 -9 -4 -17 -2 -19 2 -1 25 -17 52 -35 49 -33 59 -54 31 -65 -10 -4 -36 8 -66 30 -40 28 -53 33 -59 22 -12 -18 -11 -38 2 -38 5 0 27 -11 47 -25 43 -30 83 -32 105 -7 32 35 21 68 -34 112 -56 44 -67 48 -76 25z"/> <path d="M954 1202 l-61 -58 33 -39 c26 -32 36 -37 45 -28 10 10 8 18 -9 36 -21 22 -21 25 -6 38 14 11 17 11 25 -4 5 -9 16 -14 25 -10 13 5 13 8 -3 25 -15 17 -15 21 -3 28 21 14 27 12 42 -9 10 -14 18 -17 28 -11 12 7 9 15 -15 42 -16 18 -32 36 -35 40 -3 4 -33 -18 -66 -50z"/> <path d="M3296 1209 c-17 -14 -26 -30 -26 -49 0 -41 25 -52 73 -33 21 9 40 13 44 10 11 -12 -7 -37 -26 -37 -16 0 -31 -18 -31 -36 0 -15 55 0 75 21 57 56 2 128 -61 80 -10 -8 -25 -15 -31 -15 -19 0 -15 30 5 37 17 7 32 22 32 36 0 14 -27 7 -54 -14z"/> <path d="M1112 1132 c-7 -2 -12 -9 -12 -15 0 -6 -21 -33 -47 -60 -39 -39 -45 -49 -33 -57 21 -14 30 -12 36 5 12 29 27 15 21 -19 -5 -31 6 -56 25 -56 4 0 8 14 8 30 0 25 4 30 24 30 27 0 56 33 56 63 0 22 -61 85 -78 79z m38 -71 c0 -28 -20 -42 -42 -30 -19 10 -19 11 3 35 24 25 39 24 39 -5z"/> <path d="M2780 1060 c-2 -8 -3 -24 -4 -35 -1 -16 -8 -20 -41 -21 -124 -4 -138 -8 -51 -13 l90 -6 -2 -60 c-1 -33 2 -67 8 -75 7 -11 10 7 10 63 l0 77 132 0 c97 0 129 3 121 11 -7 7 -52 10 -132 8 l-120 -4 -4 35 c-2 19 -5 28 -7 20z"/> <path d="M3102 1030 c-27 -11 -44 -52 -36 -86 8 -31 59 -74 88 -74 65 0 89 89 37 141 -30 30 -50 34 -89 19z m68 -57 c24 -31 23 -56 -4 -61 -21 -5 -66 35 -66 58 0 39 40 41 70 3z"/> <path d="M1205 1000 c-16 -7 -11 -9 20 -9 29 -1 36 2 25 9 -17 11 -19 11 -45 0z"/> <path d="M1330 998 c0 -5 81 -8 180 -8 l180 0 0 -100 c0 -64 4 -100 11 -100 6 0 9 34 8 97 -2 87 0 98 17 104 16 7 16 8 -6 9 -86 6 -390 4 -390 -2z"/> <path d="M1270 980 c-5 -10 -34 -36 -64 -58 -48 -34 -52 -40 -36 -49 11 -8 21 -8 27 -2 15 15 65 -11 58 -29 -6 -15 11 -42 26 -42 5 0 9 8 9 18 0 10 9 46 21 81 20 59 20 63 4 82 -23 24 -32 24 -45 -1z m20 -47 c-1 -5 -6 -18 -13 -30 -9 -16 -16 -20 -27 -13 -12 7 -11 12 4 29 19 21 36 27 36 14z"/> <path d="M1152 940 c0 -19 2 -27 5 -17 2 9 2 25 0 35 -3 9 -5 1 -5 -18z"/> <path d="M2958 928 c-27 -16 -48 -36 -48 -44 0 -17 12 -18 27 -3 7 7 19 -4 42 -40 17 -28 31 -56 31 -62 0 -6 7 -8 16 -5 9 3 18 6 20 6 11 0 1 25 -31 74 -30 48 -33 56 -19 64 9 5 14 16 13 24 -3 12 -13 9 -51 -14z"/> <path d="M2237 923 c-11 -11 -8 -193 3 -193 6 0 10 40 10 100 0 100 -1 106 -13 93z"/> <path d="M1404 893 c-3 -10 -19 -44 -35 -75 -28 -53 -28 -57 -12 -67 15 -8 22 -3 40 32 l22 42 1 -52 c0 -40 4 -55 18 -62 16 -8 23 0 56 66 29 59 34 78 24 84 -20 13 -25 11 -31 -13 -4 -13 -13 -32 -22 -43 -14 -19 -15 -17 -13 33 1 38 -2 56 -13 63 -21 13 -29 11 -35 -8z"/> <path d="M2710 800 c-38 -38 -20 -66 45 -72 30 -2 41 -8 43 -22 4 -17 0 -18 -31 -13 -48 8 -73 -18 -32 -33 39 -15 53 -12 80 15 45 44 22 85 -47 85 -48 0 -48 20 0 32 43 11 41 28 -3 28 -22 0 -43 -8 -55 -20z"/> <path d="M1582 803 c-19 -7 -42 -58 -42 -92 0 -20 8 -36 26 -50 31 -25 53 -26 80 -7 24 18 14 29 -28 30 -28 1 -33 5 -36 27 -2 14 6 36 17 50 19 24 20 24 49 7 36 -22 42 -22 42 -4 0 32 -66 56 -108 39z"/> <path d="M1756 762 c-4 -3 -6 -17 -6 -31 0 -14 -7 -48 -15 -75 -8 -27 -14 -50 -13 -51 8 -4 87 -25 97 -25 24 0 9 29 -19 35 -21 5 -30 12 -30 27 0 17 4 19 25 14 18 -5 25 -2 25 8 0 7 -9 16 -19 19 -14 3 -18 11 -14 25 4 18 9 19 31 11 24 -9 54 2 41 16 -10 9 -98 33 -103 27z"/> <path d="M2530 749 c-13 -6 -26 -11 -28 -13 -3 -4 35 -146 41 -152 10 -10 80 21 93 41 22 34 11 88 -23 115 -28 22 -45 24 -83 9z m64 -41 c21 -30 21 -74 0 -82 -9 -4 -18 -5 -19 -4 -9 12 -32 98 -27 102 12 12 31 5 46 -16z"/> <path d="M1987 713 c-2 -5 -4 -35 -6 -68 -1 -33 -4 -68 -7 -77 -4 -15 1 -18 28 -18 18 0 43 -3 56 -6 18 -5 22 -2 22 15 0 11 -3 20 -7 20 -5 -1 -19 -1 -32 0 -23 1 -24 2 -17 71 6 65 5 70 -13 70 -11 0 -21 -3 -24 -7z"/> <path d="M2344 698 c3 -13 -1 -52 -10 -87 -8 -35 -13 -66 -11 -68 8 -7 37 10 37 22 0 19 53 27 66 9 10 -12 44 -20 44 -10 0 2 -16 38 -36 80 -33 70 -39 76 -66 76 -26 0 -30 -3 -24 -22z m66 -80 c0 -5 -9 -8 -20 -8 -22 0 -23 3 -13 39 l6 23 13 -23 c7 -13 13 -27 14 -31z"/> <path d="M2148 703 c-2 -5 -2 -43 0 -85 l4 -78 54 0 c41 0 54 4 54 15 0 10 -11 15 -35 15 -28 0 -35 4 -35 20 0 13 7 20 20 20 11 0 20 7 20 15 0 8 -9 15 -20 15 -13 0 -20 7 -20 20 0 16 7 20 30 20 20 0 30 5 30 15 0 11 -12 15 -49 15 -28 0 -51 -3 -53 -7z"/> <path d="M4430 2620 c0 -5 16 -10 35 -10 19 0 35 5 35 10 0 6 -16 10 -35 10 -19 0 -35 -4 -35 -10z"/> <path d="M0 2080 c0 -5 11 -10 25 -10 14 0 25 5 25 10 0 6 -11 10 -25 10 -14 0 -25 -4 -25 -10z"/> <path d="M4430 2080 c0 -5 16 -10 35 -10 19 0 35 5 35 10 0 6 -16 10 -35 10 -19 0 -35 -4 -35 -10z"/> </g> </svg> 